# WaveFront *.obj file (generated by CINEMA 4D)

mtllib ./1.mtl

v -5.84153366088867 3.57380056381226 5.84153366088867
v -5.84153366088867 15.25686740875244 5.84153366088867
v 5.84153366088867 3.57380056381226 5.84153366088867
v 5.84153366088867 15.25686740875244 5.84153366088867
v 5.84153366088867 3.57380056381226 -5.84153366088867
v 5.84153366088867 15.25686740875244 -5.84153366088867
v -5.84153366088867 3.57380056381226 -5.84153366088867
v -5.84153366088867 15.25686740875244 -5.84153366088867
v -5.84153366088867 3.57380056381226 10.80183029174805
v -5.84153366088867 15.25686740875244 10.80183029174805
v 5.84153366088867 3.57380056381226 10.80183029174805
v 5.84153366088867 15.25686740875244 10.80183029174805
v -5.84153366088867 19.73134231567383 5.84153366088867
v 5.84153366088867 19.73134231567383 5.84153366088867
v -5.84153366088867 19.73134231567383 10.80183029174805
v 5.84153366088867 19.73134231567383 10.80183029174805
v -5.84153366088867 15.25686740875244 13.7166748046875
v 5.84153366088867 15.25686740875244 13.7166748046875
v -5.84153366088867 19.73134231567383 13.7166748046875
v 5.84153366088867 19.73134231567383 13.7166748046875
# 20 vertices

vn 0 0 1
vn 1 0 0
vn 0 0 -1
vn -1 0 0
vn 0 1 0
vn 0 -1 0
# 6 normals

vt 0 0 0
vt 0 1 0
vt 1 1 0
vt 1 0 0
# 4 texture coordinates

o 立方体
usemtl 材质
f 11/4/1 12/3/1 10/2/1 9/1/1
f 5/4/2 6/3/2 4/2/2 3/1/2
f 7/4/3 8/3/3 6/2/3 5/1/3
f 1/4/4 2/3/4 8/2/4 7/1/4
f 4/4/5 6/3/5 8/2/5 2/1/5
f 5/4/6 3/3/6 1/2/6 7/1/6
f 10/2/4 2/2/4 1/1/4 9/1/4
f 16/3/5 14/3/5 13/2/5 15/2/5
f 11/4/2 3/4/2 4/3/2 12/3/2
f 9/1/6 1/1/6 3/4/6 11/4/6
f 13/2/4 2/2/4 10/2/4 15/2/4
f 14/3/3 4/3/3 2/2/3 13/2/3
f 16/3/2 12/3/2 4/3/2 14/3/2
f 19/2/1 17/2/1 18/3/1 20/3/1
f 18/3/2 12/3/2 16/3/2 20/3/2
f 17/2/6 10/2/6 12/3/6 18/3/6
f 19/2/4 15/2/4 10/2/4 17/2/4
f 20/3/5 16/3/5 15/2/5 19/2/5

